<svg width="27.000000" height="27.000000" viewBox="0 0 27 27" fill="none" xmlns="http://www.w3.org/2000/svg" xmlns:xlink="http://www.w3.org/1999/xlink">
	<desc>
			Created with Pixso.
	</desc>
	<defs/>
	<path d="M15.66 -0.34L2.33 -0.34C0.85 -0.34 -0.34 0.86 -0.34 2.33L-0.34 15.66L2.33 15.66L2.33 2.33L15.66 2.33L15.66 -0.34ZM21 4.99L7.66 4.99C6.18 4.99 5 6.19 5 7.66L5 20.99L7.66 20.99L7.66 7.66L21 7.66L21 4.99ZM23.66 10.33L13 10.33C11.52 10.33 10.33 11.53 10.33 12.99L10.33 23.66C10.33 25.13 11.52 26.33 13 26.33L23.66 26.33C25.13 26.33 26.33 25.13 26.33 23.66L26.33 12.99C26.33 11.53 25.13 10.33 23.66 10.33Z" fill="#000000" fill-opacity="1.000000" fill-rule="nonzero"/>
</svg>
