<svg width="57.000000" height="33.000000" viewBox="0 0 57 33" fill="none" xmlns="http://www.w3.org/2000/svg" xmlns:xlink="http://www.w3.org/1999/xlink">
	<desc>
			Created with Pixso.
	</desc>
	<defs/>
	<path d="M33.55 30.5C35.33 31.5 37.37 32 39.69 32L44.56 32C46.85 32 48.86 31.5 50.61 30.5Q51.68 29.87 52.56 29.03Q53.82 27.82 54.67 26.19C55.63 24.31 56.11 22.15 56.11 19.7L49.98 19.7C49.98 21.72 49.47 23.36 48.44 24.6C47.45 25.84 46.16 26.46 44.56 26.46L39.69 26.46C38.06 26.46 36.76 25.84 35.76 24.6Q35.74 24.57 35.72 24.54Q34.27 22.64 34.27 19.65L34.27 11.84Q34.27 8.93 35.68 7.1Q35.74 7.02 35.81 6.94Q36.51 6.07 37.42 5.6Q38.5 5.04 39.87 5.04L44.65 5.04Q46.02 5.04 47.08 5.61Q47.84 6.01 48.44 6.71C49.41 7.8 49.89 9.26 49.89 11.07L56.02 11.07Q56.02 7.62 54.58 5.04C53.65 3.28 52.32 1.92 50.61 0.95C48.89 -0.02 46.91 -0.5 44.65 -0.5L39.87 -0.5C37.52 -0.5 35.45 0 33.64 1Q32.56 1.61 31.67 2.43Q30.37 3.62 29.49 5.26C28.53 7.08 28.05 9.18 28.05 11.57L28.05 19.92C28.05 22.31 28.53 24.43 29.49 26.28C30.45 28.09 31.81 29.5 33.55 30.5ZM16.16 -0.14L-0.49 -0.14L-0.49 31.63L5.74 31.63L5.74 21.6L15.8 21.6C17.73 21.6 19.41 21.24 20.86 20.51Q22.41 19.72 23.48 18.49Q23.92 17.97 24.28 17.38Q24.47 17.07 24.63 16.75Q25.5 14.94 25.5 12.71L25.5 8.49C25.5 6.79 25.11 5.29 24.33 3.99C23.55 2.66 22.45 1.65 21.04 0.95Q18.91 -0.14 16.16 -0.14ZM18.28 15.16C17.62 15.82 16.76 16.16 15.71 16.16L5.74 16.16L5.74 5.31L16.07 5.31C17.03 5.31 17.8 5.63 18.37 6.26Q18.51 6.4 18.63 6.56Q19.28 7.41 19.28 8.76L19.28 12.43Q19.28 13.72 18.69 14.64Q18.51 14.92 18.28 15.16Z" fill="#FBF503" fill-opacity="1.000000" fill-rule="evenodd"/>
</svg>
