<svg width="178.000000" height="35.000000" viewBox="0 0 178 35" fill="none" xmlns="http://www.w3.org/2000/svg" xmlns:xlink="http://www.w3.org/1999/xlink">
	<desc>
			Created with Pixso.
	</desc>
	<defs>
		<clipPath id="clip15_59">
			<rect width="178.000000" height="35.187801" transform="translate(0.000000 -0.714844)" fill="white" fill-opacity="0"/>
		</clipPath>
	</defs>
	<rect width="178.000000" height="35.187801" transform="translate(0.000000 -0.714844)" fill="#FFFFFF" fill-opacity="0"/>
	<g clip-path="url(#clip15_59)">
		<path d="M113.88 27.71L107.08 18.55L100.29 27.71L97.5 27.71L105.67 16.65L98.21 6.6L101 6.6L107.08 14.79L113.16 6.6L115.95 6.6L108.5 16.65L116.67 27.71L113.88 27.71ZM60.93 27.7L52.75 16.65L60.21 6.6L57.42 6.6L51.34 14.8L45.26 6.6L42.47 6.6L49.93 16.65L41.75 27.7L44.55 27.7L51.34 18.55L58.13 27.7L60.93 27.7Z" fill="#FBF503" fill-opacity="1.000000" fill-rule="nonzero"/>
		<path d="M76.48 17.45C76.06 17.09 75.59 16.79 75.08 16.57C75.86 16.16 76.5 15.55 76.95 14.8C77.4 14.06 77.64 13.21 77.64 12.34C77.64 10.99 77.14 6.6 70.73 6.6L62.09 6.6L62.09 15.7L59.22 15.7C58.84 16.18 58 17.34 57.67 17.81L62.09 17.81L62.09 27.7L70.73 27.7C75.41 27.7 78.31 25.35 78.31 21.54C78.31 19.88 77.68 18.47 76.48 17.45ZM64.48 8.8L70.73 8.8C72.42 8.8 75.25 9.22 75.25 12.15C75.25 14.37 73.6 15.7 70.73 15.7L64.48 15.7L64.48 8.8ZM70.73 25.5L64.48 25.5L64.48 17.82L70.73 17.82C73.1 17.82 75.93 18.47 75.93 21.5C75.93 24.98 72.67 25.5 70.73 25.5ZM89.55 6.11C83.58 6.11 79.4 10.65 79.4 17.14C79.4 23.64 83.58 28.17 89.55 28.17C95.52 28.17 99.68 23.64 99.68 17.14C99.68 10.65 95.52 6.11 89.55 6.11ZM89.55 25.94C85 25.94 81.81 22.32 81.81 17.14C81.81 11.96 85 8.34 89.55 8.34C94.09 8.34 97.26 11.96 97.26 17.14C97.26 22.32 94.09 25.94 89.55 25.94ZM5.29 4.34L5.27 4.35L5.27 4.36C3.6 5.99 2.27 7.94 1.37 10.09C0.46 12.24 0 14.54 0 16.87C0 20.73 1.27 24.47 3.62 27.53C3.65 27.56 3.69 27.58 3.72 27.56C3.75 27.54 3.75 27.5 3.74 27.47C2.39 23.32 9.3 13.27 12.87 9.06C12.88 9.04 12.89 9.03 12.89 9C12.89 8.98 12.88 8.96 12.86 8.95C6.86 3.02 5.25 4.37 5.27 4.35L5.29 4.34ZM30.17 4.34L30.19 4.35L30.19 4.36C31.86 5.99 33.19 7.94 34.09 10.09C35 12.24 35.46 14.54 35.46 16.87C35.46 20.73 34.19 24.47 31.83 27.53C31.81 27.56 31.77 27.58 31.74 27.56C31.71 27.54 31.71 27.5 31.72 27.47C33.07 23.32 26.17 13.26 22.6 9.05C22.59 9.03 22.57 9.02 22.57 9C22.57 8.97 22.59 8.95 22.61 8.94C28.61 3.01 30.2 4.37 30.18 4.35L30.17 4.34ZM17.73 -0.72C21.31 -0.72 24.25 0.25 26.96 1.86C27 1.87 27.01 1.91 26.99 1.94C26.98 1.97 26.94 1.98 26.91 1.97C23.48 1.24 18.26 4.18 17.77 4.47C17.76 4.48 17.75 4.49 17.73 4.49C17.71 4.49 17.7 4.48 17.69 4.47C16.38 3.73 11.56 1.22 8.52 1.99C8.49 2 8.45 1.99 8.44 1.96C8.43 1.94 8.43 1.93 8.44 1.91C8.44 1.89 8.45 1.88 8.47 1.87C11.18 0.25 14.16 -0.72 17.73 -0.72ZM17.73 13.39C17.75 13.39 17.77 13.41 17.79 13.42C23.09 17.42 32.17 27.32 29.4 30.12L29.4 30.11L29.4 30.12L29.4 30.12C26.17 32.93 22.02 34.48 17.73 34.47C13.43 34.48 9.29 32.93 6.06 30.12L6.05 30.11L6.06 30.12C3.29 27.32 12.37 17.42 17.67 13.42C17.68 13.41 17.71 13.39 17.73 13.39ZM157.94 6.6L157.94 23.92L145.09 6.59L142.98 6.58L142.98 27.67L145.35 27.67L145.35 10.73L157.94 27.68L160.31 27.69L160.31 6.6L157.94 6.6ZM130.69 6.11C124.71 6.11 120.54 10.64 120.54 17.13C120.54 23.64 124.71 28.17 130.69 28.17C136.66 28.17 140.82 23.64 140.82 17.13C140.82 10.65 136.66 6.11 130.69 6.11ZM130.69 25.94C126.14 25.94 122.95 22.32 122.95 17.13C122.95 11.96 126.14 8.34 130.69 8.34C135.23 8.34 138.4 11.96 138.4 17.13C138.4 22.32 135.23 25.94 130.69 25.94ZM165.35 25.62L165.35 17.82L177.05 17.82L177.05 15.75L165.35 15.75L165.35 8.65L177.85 8.65L177.85 6.58L162.97 6.58L162.97 27.69L177.99 27.69L177.99 25.62L165.35 25.62Z" fill="#FBF503" fill-opacity="1.000000" fill-rule="nonzero"/>
	</g>
</svg>
