<svg width="27.000000" height="27.000000" viewBox="0 0 27 27" fill="none" xmlns="http://www.w3.org/2000/svg" xmlns:xlink="http://www.w3.org/1999/xlink">
	<desc>
			Created with Pixso.
	</desc>
	<defs/>
	<path d="M26.33 18.33L26.33 2.33C26.33 0.86 25.13 -0.34 23.66 -0.34L7.66 -0.34C6.2 -0.34 5 0.86 5 2.33L5 18.33C5 19.79 6.2 21 7.66 21L23.66 21C25.13 21 26.33 19.79 26.33 18.33ZM11.66 13L14.37 16.61L18.33 11.66L23.66 18.33L7.66 18.33L11.66 13ZM-0.34 5L-0.34 23.66C-0.34 25.13 0.86 26.33 2.33 26.33L21 26.33L21 23.66L2.33 23.66L2.33 5L-0.34 5Z" fill="#F8F200" fill-opacity="1.000000" fill-rule="nonzero"/>
</svg>
